{"title":"Smashing Pumpkins Rock in Rio Lisbon 2012 1080i HDTV MPEG2 EFOi","uid":9655327,"size":11143346868,"categoryP":"video","categoryS":"music_videos","magnet":"?xt=urn:btih:e1afb1512bd83b1216e03a409b3bf2e869dad47a&amp;dn=Smashing+Pumpkins+Rock+in+Rio+Lisbon+2012+1080i+HDTV+MPEG2+EFOi&amp;tr=udp%3A%2F%2Ftracker.openbittorrent.com%3A80&amp;tr=udp%3A%2F%2Fopen.demonii.com%3A1337&amp;tr=udp%3A%2F%2Ftracker.coppersurfer.tk%3A6969&amp;tr=udp%3A%2F%2Fexodus.desync.com%3A6969","seeders":1,"leechers":0,"uploader":"GeorgeHug","files":2,"time":1393173206,"description":"Smashing.Pumpkins.Live.at.Rock.in.Rio.Lisbon.2012.1080i.HDTV.MPEG2-EFOi\nSource: DVB-S\n\nMedia Info:\n\nGeneral\nID                                       : 1 (0x1)\nComplete name                            : Smashing.Pumpkins.Live.at.Rock.in.Rio.Lisbon.2012.1080i.HDTV.MPEG2-EFOi.ts\nFormat                                   : MPEG-TS\nFile size                                : 10.4 GiB\nDuration                                 : 1h 46mn\nOverall bit rate mode                    : Variable\nOverall bit rate                         : 13.9 Mbps\n\nVideo\nID                                       : 17 (0x11)\nMenu ID                                  : 1 (0x1)\nFormat                                   : MPEG Video\nFormat version                           : Version 2\nFormat profile                           : 4:2:2@High\nFormat settings, BVOP                    : Yes\nFormat settings, Matrix                  : Custom\nFormat settings, GOP                     : M=3, N=12\nCodec ID                                 : 2\nDuration                                 : 1h 46mn\nBit rate                                 : 12.8 Mbps\nMaximum bit rate                         : 13.3 Mbps\nWidth                                    : 1 920 pixels\nHeight                                   : 1 080 pixels\nDisplay aspect ratio                     : 16:9\nFrame rate                               : 25.000 fps\nColor space                              : YUV\nChroma subsampling                       : 4:2:2\nBit depth                                : 8 bits\nScan type                                : Interlaced\nScan order                               : Top Field First\nCompression mode                         : Lossy\nBits/(Pixel*Frame)                       : 0.247\nTime code of first frame                 : 10:58:04:10\nTime code source                         : Group of pictures header\nStream size                              : 9.57 GiB (92%)\n\nAudio\nID                                       : 20 (0x14)\nMenu ID                                  : 1 (0x1)\nFormat                                   : MPEG Audio\nFormat version                           : Version 1\nFormat profile                           : Layer 2\nCodec ID                                 : 4\nDuration                                 : 1h 46mn\nBit rate mode                            : Constant\nBit rate                                 : 384 Kbps\nChannel count                            : 2 channels\nSampling rate                            : 48.0 KHz\nCompression mode                         : Lossy\nDelay relative to video                  : -858ms\nStream size                              : 294 MiB (3%)\nLanguage                                 : English\n\nMenu\nID                                       : 16 (0x10)\nMenu ID                                  : 1 (0x1)\nDuration                                 : 1h 46mn\nList                                     : 17 (0x11) (MPEG Video) / 20 (0x14) (MPEG Audio, English)\nLanguage                                 :  / English\nMaximum bit rate                         : 14441200\n\n","torrent":{"xt":"urn:btih:e1afb1512bd83b1216e03a409b3bf2e869dad47a","amp;dn":"Smashing+Pumpkins+Rock+in+Rio+Lisbon+2012+1080i+HDTV+MPEG2+EFOi","amp;tr":["udp%3A%2F%2Ftracker.openbittorrent.com%3A80","udp%3A%2F%2Fopen.demonii.com%3A1337","udp%3A%2F%2Ftracker.coppersurfer.tk%3A6969","udp%3A%2F%2Fexodus.desync.com%3A6969"],"infoHash":"e1afb1512bd83b1216e03a409b3bf2e869dad47a","infoHashBuffer":{"type":"Buffer","data":[225,175,177,81,43,216,59,18,22,224,58,64,155,59,242,232,105,218,212,122]},"announce":[],"urlList":[]}}